<?xml version="1.0" standalone="yes"?>
<svg xmlns="http://www.w3.org/2000/svg" width="767" height="236">
<path style="fill:#ffffff; stroke:none;" d="M0 0L0 110L1 110C3.86025 95.2174 25.4874 85.8211 39 84C47.1984 40.4864 78.1185 1.98827 126 1C115.973 -3.20769 98.8961 0 88 0L0 0z"/>
<path style="fill:#436bfa; stroke:none;" d="M39 84C27.4838 84.9406 11.8235 91.8654 4.53318 101.039C1.68632 104.622 -3.26752 115.236 3.22839 117.772C9.66992 120.286 18.2314 119.003 25 119C51.0286 118.99 75.9652 108.739 101 103L75 72L92.4244 68.4005L132 91.0008L168 84.6566L180 94C169.715 97.3522 148.144 101.758 141.244 110.275C129.244 125.086 122.745 161.998 101 162L103 118C79.8218 123.362 56.263 133.181 34 141.576C29.0497 143.443 12.2769 148.999 18.1937 157.436C20.516 160.747 26.5443 159.835 30 160.17C38.333 160.976 55.8098 159.216 62.4823 164.603C68.7643 169.674 72.971 179.558 77.8843 186C87.596 198.734 98.1542 210.331 110 221.075C115.773 226.311 125.28 237.199 134 235.707C147.806 233.345 163.7 213 172.271 203C191.817 180.195 209.243 153.194 219.936 125C223.689 115.105 223.341 105.12 225.681 95C226.928 89.6053 230.349 85.2169 232 80L219 83C228.534 77.3775 258.314 65.2587 254.562 51.0039C249.897 33.2735 221.262 49.5895 211.325 42.3819C207.208 39.3963 204.496 33.7034 200.961 30C190.627 19.1752 179.225 9.87692 165 4.69522C107.352 -16.3035 46.4523 25.3396 39 84z"/>
<path style="fill:#ffffff; stroke:none;" d="M149 0L149 1C166.979 2.46849 183.609 13.6245 196 26C200.755 30.7491 205.646 39.6552 211.325 42.9684C220.253 48.1774 236.755 39.8399 246.999 44.0093C255.029 47.2771 256.523 54.8102 250.891 60.9853C242.912 69.7347 229.822 77.3367 219 82L219 83L232 80C225.088 94.8044 225.505 109.992 219.55 125C202.879 167.02 173.581 209.357 136 235L136 236L767 236L767 0L149 0z"/>
<path style="fill:#131b3c; stroke:none;" d="M610 34.439C570.707 40.6241 554.169 91.039 581.174 119.961C593.368 133.021 611.74 137.279 629 134.561C661.871 129.385 678.232 90.9496 664.677 62C655.064 41.4697 631.94 30.9855 610 34.439z"/>
<path style="fill:#09195c; stroke:none;" d="M610 35.439C571.65 41.4755 555.693 90.2894 581.301 118.961C593.126 132.2 611.985 136.24 629 133.561C662.178 128.336 677.968 88.4996 662.676 60C652.557 41.1428 630.718 32.1779 610 35.439z"/>
<path style="fill:#131b3c; stroke:none;" d="M317 36L317 55L343 55L343 133L363 133L363 55L389 55L389 36L317 36M398 36L398 90C398 99.8673 396.785 110.097 401.88 119C415.008 141.939 457.805 141.048 469.366 117C473.456 108.492 472 98.1795 472 89L472 36L452 36L452 82C452 89.0995 453.49 98.1785 451.347 105C447.623 116.86 430.453 119.029 422.214 110.786C416.516 105.086 418 96.3487 418 89L418 36L398 36M488 36L488 133L509 133L509 100L520.815 101.028L540.61 131.397L563 133L542 97C564.813 86.1451 566.47 52.3273 544 39.9051C528.899 31.5568 504.781 36 488 36M681 36L681 133L702 133L702 77L703 77L729.28 116L741.465 131.972L757 133L757 36L737 36L737 92L710.025 54L696.826 37.0278L681 36z"/>
<path style="fill:#09195c; stroke:none;" d="M318 37L318 54L344 54L344 132L362 132L362 76C362 71.0677 359.862 59.3449 363.603 55.6034C367.804 51.4028 382.358 54 388 54L388 37L318 37M399 37L399 90C399 99.8639 397.782 110.102 402.88 119C415.343 140.75 457.438 139.73 468.366 117C472.456 108.492 471 98.1794 471 89L471 37L453 37L453 83C453 89.8112 454.401 98.4516 452.347 105C448.077 118.616 428.816 120.26 420.394 109.957C415.496 103.965 417 95.2246 417 88L417 37L399 37M489 37L489 132L508 132L508 99L521.621 100.028L541.61 130.972L561 132L541 96C563.309 88.8764 564.653 55.5279 546.996 42.7894C532.156 32.0833 506.375 37 489 37M682 37L682 132L701 132L701 74L702 74L730.28 116L742.093 130.972L756 132L756 37L738 37L738 95L709.72 55L696.7 38.0278L682 37z"/>
<path style="fill:#131b3c; stroke:none;" d="M617 52.5177C576.259 55.5618 579.021 119.289 620 116.907C661.237 114.51 658.021 49.4528 617 52.5177z"/>
<path style="fill:#ffffff; stroke:none;" d="M617 53.5177C577.467 56.4715 580.181 118.221 620 115.907C660.002 113.581 656.899 50.5366 617 53.5177z"/>
<path style="fill:#131b3c; stroke:none;" d="M508 54L508 83C515.423 83 526.223 84.9762 532.996 81.5432C543.44 76.2493 543.546 60.5263 532.996 55.179C526.472 51.8719 515.186 54 508 54z"/>
<path style="fill:#ffffff; stroke:none;" d="M509 55L509 82C516.133 82 526.488 83.8912 532.985 80.5432C542.227 75.78 542.318 60.989 532.985 56.179C526.734 52.9576 515.898 55 509 55M75 72L101 103C75.4084 106.765 51.3594 118.958 25 119C17.6728 119.012 7.10463 120.697 1 116L0 116L0 236L129 236L129 235C109.682 223.994 93.7846 205.247 80.2106 188C75.1947 181.627 68.9935 167.042 61.6744 163.589C52.9777 159.485 37.554 160.472 28 160C24.183 159.811 17.1957 159.497 17.8009 153.981C18.6911 145.869 30.8175 143.151 37 140.808C58.6988 132.583 80.933 125.18 103 118L101 162C123.902 162 128.824 125.468 141.904 110.275C149.529 101.418 169.432 98.7068 180 94C165.45 73.4044 150.439 93.8647 132.424 90.8364C118.164 88.4393 106.937 72.2185 93 68.2593C87.4827 66.6919 80.5291 71.1835 75 72M217.667 83.3333L218.333 83.6667L217.667 83.3333z"/>
<path style="fill:#495fa1; stroke:none;" d="M402 171.529C372.551 178.325 384.288 223.327 414 216.471C443.257 209.719 431.179 164.796 402 171.529M597 201C574.542 210.423 619.307 229.531 621.891 206C622.135 203.777 622.152 201.168 621.486 199.015C619.404 192.285 599.45 189.278 601.346 183.133C603.397 176.484 611.059 183.395 613 186L621 182C617.147 168.281 592.785 166.217 590.344 182C587.75 198.777 608.697 192.641 611.539 203.064C613.921 211.8 599.201 205.021 597 201M337 172L337 181L349 181L349 216L359 216L359 181L371 181L371 172L337 172M450 172C450 182.983 446.765 200.159 452.417 209.957C458.072 219.758 476.914 219.785 482.558 209.907C488.187 200.055 485 182.986 485 172L475 172C475 179.806 479.371 206.846 467.997 207.663C455.541 208.558 460 179.659 460 172L450 172M507 172L507 216L516 216L516 201C525.153 201.696 524.196 210.663 530.61 214.972C533.329 216.8 537.883 216 541 216L532 199C541.696 193.694 542.369 178.809 531.985 173.457C525.269 169.996 514.381 172 507 172M560 172L560 216L569 216L569 172L560 172M643 172L643 216L652 216L652 190L653 190L663 208C669.426 205.995 673.8 196.009 676 190L677 190L677 216L686 216L686 172C673.973 172.001 668.971 181.154 665 192C658.769 181.82 656.014 172.001 643 172z"/>
<path style="fill:#ffffff; stroke:none;" d="M404 180.653C386.749 186.042 395.007 212.656 412 207.347C428.844 202.086 420.946 175.359 404 180.653M516 181L516 193C520.305 193 537.772 189.219 527.566 182.179C524.579 180.119 519.441 181 516 181z"/>
</svg>
